<mxfile host="app.diagrams.net" modified="2023-12-29T10:15:55.183Z" agent="Mozilla/5.0 (Windows NT 10.0; Win64; x64) AppleWebKit/537.36 (KHTML, like Gecko) Chrome/120.0.0.0 Safari/537.36" version="22.1.16" etag="d2LAHtCtY86s7z7yNqou" type="github">
  <diagram name="Page-1" id="63JMX-PH7U_A_mcO08VK">
    <mxGraphModel>
      <root>
        <mxCell id="0" />
        <mxCell id="1" parent="0" />
      </root>
    </mxGraphModel>
  </diagram>
</mxfile>
